<svg width="265" height="58" viewBox="0 0 265 58" fill="none" xmlns="http://www.w3.org/2000/svg">
<path d="M22.1862 30.6146C22.1862 26.5162 19.5213 24.1981 16.5675 22.3669C14.6608 21.2042 12.4003 20.2087 10.1398 18.7118C7.76374 17.1058 6.43488 15.2746 6.43488 12.4551C6.43488 9.51938 8.63039 6.6999 12.6314 6.6999C18.0191 6.6999 18.9435 9.02524 19.4057 13.5669C19.5791 13.7341 20.6263 13.7341 20.7924 13.5161C21.0235 10.7474 21.3774 8.03697 21.7818 6.03863C19.4057 5.76249 17.0875 5.15936 13.267 5.15936C7.18598 5.15936 2.14496 8.64737 2.14496 14.4607C2.14496 19.1114 5.04102 21.771 9.95926 24.5905C15.058 27.5263 17.4919 29.4083 17.4919 33.2815C17.4919 36.9948 14.4225 39.0367 11.2376 39.0367C8.91928 39.0367 7.07042 38.6516 5.56101 37.656C3.64715 36.3698 2.42662 34.1535 1.44442 30.6655C1.21331 30.5565 0.17333 30.7745 0 31.0506C0.17333 32.8237 0.982204 38.31 1.38664 39.1893C2.54217 39.7489 6.18933 40.7444 9.6126 40.7444C17.5497 40.7444 22.1862 36.0937 22.1862 30.6146ZM49.6446 37.5906C49.6446 37.3 49.5868 37.1328 49.5868 37.1328C49.0091 37.191 48.4891 37.2491 47.9619 37.2491C46.1708 37.2491 45.9325 36.7768 45.9325 34.6258V22.8465C45.9325 20.5212 45.9902 17.8979 46.1636 16.5535C44.7769 16.9677 40.1404 17.4328 37.0132 17.4328C36.8399 17.5491 36.7821 17.956 36.7821 18.3048C36.7821 18.4792 36.7821 18.6609 36.8399 18.7772C38.3998 18.9516 39.6709 19.0678 40.4292 19.3004C41.3609 19.591 41.5342 20.4122 41.5342 21.0516C41.6498 23.9656 41.6498 27.3446 41.6498 29.9679C41.6498 34.277 41.592 34.9165 40.8409 35.4978C39.5698 36.5515 38.0604 37.191 36.2043 37.191C33.2505 37.191 32.0372 35.5632 31.5677 33.7538C31.3366 32.7002 31.2789 30.9561 31.2789 28.1003C31.2789 21.4004 31.51 17.7889 31.6833 16.5027C30.1739 16.9677 25.8912 17.4401 23.5729 17.4401C23.3996 17.5563 23.284 18.0795 23.284 18.4284C23.284 18.5446 23.284 18.719 23.349 18.7772C24.3312 18.8934 25.6095 19.0678 26.0717 19.2422C26.9962 19.591 27.0539 19.7654 27.0539 23.5514C27.0539 26.5816 26.9384 29.5537 26.9384 32.642C26.9384 36.5442 27.8628 40.4537 33.431 40.4537C35.2293 40.4537 38.0026 39.5236 41.2526 36.7768C41.3103 36.7186 41.3103 36.7186 41.3681 36.7186C41.4837 36.7186 41.5992 36.8349 41.5992 36.9584C41.5992 37.8304 41.5992 39.5236 41.657 40.2139C41.657 40.4537 41.8303 40.6863 41.9459 40.6863H42.0037C43.217 40.3375 47.3336 39.0512 49.4785 38.2955C49.5868 38.172 49.6446 37.8232 49.6446 37.5906ZM66.7321 33.3905C66.7321 30.6509 65.6343 28.7907 60.8894 26.4581C56.5417 24.358 55.7328 23.1372 55.7328 21.1606C55.7328 19.0024 57.3578 17.7162 59.2644 17.7162C60.3116 17.7162 61.1783 17.8906 61.9872 18.3557C63.1427 19.0533 63.6627 20.2814 64.0166 22.8392C64.1899 23.0136 65.1721 22.9555 65.2877 22.7811C65.4032 20.4485 65.5765 18.7045 65.981 16.8442C65.5188 16.8442 64.5871 16.6698 63.7205 16.5463C62.7888 16.3719 61.4599 16.2556 60.1889 16.2556C54.7434 16.2556 51.9051 19.4021 51.9051 22.9555C51.9051 25.9857 53.4146 28.0277 58.2172 30.4765C61.5755 32.2278 62.6805 33.3324 62.6805 35.4833C62.6805 37.5252 60.94 38.8696 58.6289 38.8696C57.7622 38.8696 56.7223 38.637 55.8484 38.172C54.339 37.3508 53.1257 35.8466 52.3673 32.6929C52.1362 32.5766 51.154 32.8673 51.0385 33.0417C51.0963 34.3206 51.5007 38.0557 51.9051 39.3346C53.3568 39.9741 55.7906 40.4465 57.8128 40.4465C62.8538 40.4465 66.7321 37.5325 66.7321 33.3905ZM121.519 49.1302C121.519 48.8395 121.172 48.5416 121.057 48.4907C118.681 50.4091 114.853 51.4119 112.246 51.4119C103.269 51.4119 90.0666 42.9607 84.4479 39.8724C89.3733 38.5862 93.5405 34.7421 93.5405 27.6934C93.5405 21.1025 89.135 16.1539 82.1296 16.1539C75.7597 16.1539 69.852 21.3423 69.852 28.3983C69.852 32.9981 71.997 37.1401 75.7597 39.1748C73.2681 39.7634 70.5526 41.5074 68.8698 43.2005C68.812 43.2587 68.812 43.4912 68.812 43.4912C68.812 43.7891 69.1587 44.1888 69.2742 44.2542C71.7081 42.3867 73.7375 41.2167 76.6263 41.2167C84.7367 41.2167 97.1876 54.9217 108.194 54.9217C112.246 54.9217 117.922 53.0033 121.454 49.4354C121.519 49.3627 121.519 49.2464 121.519 49.1302ZM88.7955 29.8371C88.7955 33.3324 87.4595 38.5716 82.7146 38.5716C77.3847 38.5716 74.6041 33.0417 74.6041 27.2138C74.6041 22.5486 76.518 18.0069 80.8585 18.0069C86.0728 18.0069 88.7955 24.1836 88.7955 29.8371ZM121.23 37.5906C121.23 37.3 121.172 37.1328 121.172 37.1328C120.587 37.191 120.067 37.2491 119.547 37.2491C117.756 37.2491 117.518 36.7768 117.518 34.6258V22.8465C117.518 20.5212 117.576 17.8979 117.749 16.5535C116.355 16.9677 111.718 17.4328 108.599 17.4328C108.425 17.5491 108.367 17.956 108.367 18.3048C108.367 18.4792 108.367 18.6609 108.425 18.7772C109.992 18.9516 111.263 19.0678 112.022 19.3004C112.946 19.591 113.12 20.4122 113.12 21.0516C113.235 23.9656 113.235 27.3446 113.235 29.9679C113.235 34.277 113.177 34.9165 112.426 35.4978C111.155 36.5515 109.646 37.191 107.79 37.191C104.836 37.191 103.622 35.5632 103.153 33.7538C102.922 32.7002 102.864 30.9561 102.864 28.1003C102.864 21.4004 103.095 17.7889 103.269 16.5027C101.759 16.9677 97.4765 17.4401 95.1582 17.4401C94.9849 17.5563 94.8693 18.0795 94.8693 18.4284C94.8693 18.5446 94.8693 18.719 94.9271 18.7772C95.9093 18.8934 97.1876 19.0678 97.6498 19.2422C98.5815 19.591 98.6393 19.7654 98.6393 23.5514C98.6393 26.5816 98.5237 29.5537 98.5237 32.642C98.5237 36.5442 99.4553 40.4537 105.009 40.4537C106.8 40.4537 109.588 39.5236 112.831 36.7768C112.888 36.7186 112.888 36.7186 112.946 36.7186C113.062 36.7186 113.177 36.8349 113.177 36.9584C113.177 37.8304 113.177 39.5236 113.235 40.2139C113.235 40.4537 113.408 40.6863 113.524 40.6863H113.582C114.795 40.3375 118.912 39.0512 121.057 38.2955C121.172 38.172 121.23 37.8232 121.23 37.5906ZM142.47 24.8812C141.943 24.7649 141.661 24.5905 141.603 24.4161C141.141 21.3278 139.227 16.2556 133.666 16.2556C131.984 16.2556 129.319 17.0695 127.643 18.174C124.632 20.1578 122.544 23.595 122.544 28.5509C122.544 34.902 125.787 40.4392 132.626 40.4392C135.407 40.4392 139.112 38.9204 141.777 36.0138C141.892 35.8394 142.073 35.0182 142.008 34.6113C142.008 34.5532 141.835 34.4369 141.777 34.3788C139.632 36.2463 137.552 36.8204 135.291 36.8204C130.193 36.8204 126.719 32.86 126.719 27.7879C126.719 27.4972 126.834 27.2647 127.008 27.2065C131.695 27.0321 139.523 26.5598 142.123 25.8622C142.297 25.7605 142.528 25.0629 142.47 24.8812ZM137.198 24.5978C137.198 24.8303 136.967 25.0047 136.851 25.0629C135.638 25.3535 128.806 25.5279 127.065 25.4698C126.95 25.4698 126.834 25.2373 126.834 25.0629C127.123 20.6956 129.203 18.1232 131.875 18.1232C135.118 18.1232 136.851 21.6257 137.198 24.5978ZM169.748 38.5789C168.535 38.4626 167.372 38.3464 166.556 37.7723C165.805 37.2491 165.978 36.13 165.978 35.3816C165.978 32.4676 166.094 27.8024 166.094 24.605C166.094 19.4748 163.891 16.2701 159.261 16.2701C157.232 16.2701 154.155 17.4401 151.093 19.7654C151.093 19.7654 151.035 19.8236 150.978 19.8236C150.92 19.8236 150.862 19.7073 150.862 19.7073V10.3187C150.862 7.69544 150.862 2.44888 151.44 0.523202V0.465069C151.44 0.290668 151.267 0.116267 151.151 0C149.418 0.81387 146.226 1.63501 142.752 1.92568C142.694 1.98381 142.636 2.21634 142.636 2.50701C142.636 2.73955 142.694 2.97208 142.752 3.03021C143.792 3.14648 144.601 3.26275 145.186 3.44442C146.052 3.67695 146.283 4.14202 146.399 4.95589C146.637 6.75803 146.637 10.2606 146.637 20.6956V25.7605C146.637 27.2211 146.572 34.1535 146.514 35.556C146.457 37.2491 146.226 37.8886 145.243 38.1792C144.723 38.3536 144.146 38.4699 143.214 38.5789C143.156 38.6443 143.098 38.935 143.098 39.2256C143.098 39.5236 143.156 39.807 143.214 39.9233C144.203 39.9233 145.763 39.7489 148.609 39.7489C151.909 39.7489 153.823 39.8651 154.574 39.8651C154.69 39.7489 154.748 39.4509 154.748 39.1675C154.748 38.935 154.69 38.6443 154.574 38.5789C153.592 38.4626 153.18 38.3464 152.545 38.2374C151.389 37.8886 151.1 37.3581 150.992 35.556C150.934 33.921 150.877 26.3491 150.877 22.2652C150.877 21.8582 151.165 21.2769 151.577 20.9281C152.848 19.8817 154.813 19.3512 156.38 19.3512C160.027 19.3512 161.19 21.8001 161.479 23.4278C161.652 24.4234 161.717 26.0511 161.717 27.7951C161.717 30.5347 161.594 33.6812 161.536 35.0836C161.479 37.4162 161.305 37.8232 160.554 38.1138C160.085 38.2882 159.225 38.4045 158.294 38.5716C158.178 38.637 158.12 38.9277 158.12 39.2184C158.12 39.5163 158.178 39.7997 158.294 39.916C159.103 39.8579 161.248 39.7416 163.624 39.7416C166.231 39.7416 168.722 39.916 169.531 39.916C169.705 39.8579 169.82 39.2184 169.82 38.8696C169.806 38.7606 169.806 38.6443 169.748 38.5789ZM190.706 37.5325C190.706 37.4162 190.649 37.1837 190.649 37.1837C190.071 37.4162 189.609 37.4744 188.8 37.4744C187.066 37.4744 186.539 35.9556 186.539 34.793C186.539 30.1277 186.778 26.6325 186.778 23.7185C186.778 19.9326 185.21 16.2629 180.003 16.2629C178.552 16.2629 174.673 17.8979 172.124 19.7582C171.777 20.2232 170.968 22.0326 170.968 22.7884C170.968 23.3697 172.825 24.3071 173.287 24.3071C173.46 24.3071 173.742 24.249 173.742 24.249C174.088 22.207 174.616 19.9326 175.193 19.5329C175.533 19.2422 176.349 19.0606 177.216 19.0606C181.101 19.0606 182.777 21.1025 182.777 24.3071C182.777 25.1791 182.661 27.1048 182.661 27.1048C182.661 27.1048 182.264 27.3373 182.141 27.3955C180.061 28.4491 173.164 30.3094 171.25 31.1814C171.019 31.6465 170.564 33.049 170.564 34.2116C170.564 37.3 172.586 40.4537 175.778 40.4537C177.049 40.4537 179.483 39.1675 182.271 37.4235H182.322C182.379 37.4235 182.495 37.4816 182.495 37.5398C182.56 37.954 182.733 38.6516 182.907 38.9422C183.369 39.8724 184.243 40.461 185.745 40.461C187.131 40.461 189.154 39.698 190.548 38.3028C190.649 38.172 190.706 37.7142 190.706 37.5325ZM182.603 29.0232C182.603 30.0187 182.48 33.2742 182.423 34.793C182.365 35.3743 182.192 35.9556 181.845 36.2536C181.152 36.8349 179.584 37.3 178.833 37.3C176.515 37.3 174.839 35.6722 174.839 33.3396C174.839 32.7583 175.136 31.7627 175.359 31.5883C176.226 30.8326 180.054 29.6699 182.423 28.8488C182.545 28.9069 182.603 28.9651 182.603 29.0232ZM216.995 38.9858C216.995 38.8114 216.995 38.637 216.937 38.5716C215.832 38.3972 214.965 38.281 214.099 37.8813C213.637 37.7069 213.398 37.2418 213.398 36.6532C213.34 34.4369 213.463 28.3256 213.463 25.1719C213.463 20.7464 212.127 16.2556 206.804 16.2556C204.883 16.2556 201.937 17.4764 198.694 20.0997C198.694 20.1578 198.629 20.1578 198.629 20.1578C198.578 20.1578 198.463 20.0416 198.463 19.9253C198.463 18.937 198.629 17.4255 198.752 16.4881C198.752 16.3719 198.578 16.1975 198.521 16.1975C197.011 17.0695 193.415 18.0578 191.096 18.3557C190.988 18.472 190.865 18.8789 190.865 19.1768V19.3512C193.068 20.107 193.884 20.7537 194.057 21.5094C194.115 22.1489 194.173 23.9002 194.173 26.4653C194.173 30.026 194.173 34.1026 194.057 36.0283C194 37.0747 193.711 37.8958 192.844 38.1792C192.266 38.3536 191.566 38.4699 190.815 38.5789C190.699 38.7024 190.699 38.935 190.699 39.2256C190.699 39.5236 190.699 39.8651 190.815 39.9233C191.624 39.9233 193.191 39.7489 196.26 39.7489C199.387 39.7489 201.005 39.9233 201.937 39.9233C202.052 39.7488 202.11 39.3419 202.11 38.9931C202.11 38.8187 202.11 38.6443 202.052 38.5789C201.128 38.4626 200.196 38.2882 199.618 38.1211C198.925 37.8304 198.629 37.4162 198.578 35.9048C198.463 33.2815 198.463 27.628 198.463 23.4351C198.463 22.2652 198.629 21.742 198.976 21.3932C199.958 20.4049 202.218 19.4748 203.901 19.4748C206.913 19.4748 208.596 21.3932 209 24.3071C209.173 25.5861 209.058 28.7398 209.058 31.5302C209.058 33.2815 209.058 34.9674 209 36.0792C208.942 37.3 208.711 37.9394 207.844 38.172C207.491 38.2882 206.747 38.4626 205.699 38.5716C205.642 38.637 205.584 38.9277 205.584 39.1602C205.584 39.4509 205.642 39.7997 205.699 39.916C206.978 39.8579 208.661 39.7416 211.434 39.7416C214.388 39.7416 215.948 39.916 216.756 39.916C216.937 39.7489 216.995 39.3346 216.995 38.9858ZM243.753 38.9858C243.753 38.8114 243.753 38.637 243.695 38.5716C242.597 38.3972 241.73 38.281 240.857 37.8813C240.394 37.7069 240.163 37.2418 240.163 36.6532C240.105 34.4369 240.221 28.3256 240.221 25.1719C240.221 20.7464 238.885 16.2556 233.562 16.2556C231.656 16.2556 228.695 17.4764 225.459 20.0997C225.459 20.1578 225.394 20.1578 225.394 20.1578C225.336 20.1578 225.221 20.0416 225.221 19.9253C225.221 18.937 225.394 17.4255 225.517 16.4881C225.517 16.3719 225.336 16.1975 225.286 16.1975C223.776 17.0695 220.187 18.0578 217.869 18.3557C217.753 18.472 217.638 18.8789 217.638 19.1768V19.3512C219.84 20.107 220.649 20.7537 220.823 21.5094C220.88 22.1489 220.938 23.9002 220.938 26.4653C220.938 30.026 220.938 34.1026 220.823 36.0283C220.765 37.0747 220.476 37.8958 219.609 38.1792C219.031 38.3536 218.331 38.4699 217.58 38.5789C217.464 38.7024 217.464 38.935 217.464 39.2256C217.464 39.5236 217.464 39.8651 217.58 39.9233C218.389 39.9233 219.956 39.7489 223.025 39.7489C226.145 39.7489 227.77 39.9233 228.695 39.9233C228.817 39.7488 228.875 39.3419 228.875 38.9931C228.875 38.8187 228.875 38.6443 228.817 38.5789C227.893 38.4626 226.961 38.2882 226.391 38.1211C225.69 37.8304 225.394 37.4162 225.336 35.9048C225.221 33.2815 225.221 27.628 225.221 23.4351C225.221 22.2652 225.394 21.742 225.741 21.3932C226.723 20.4049 228.983 19.4748 230.666 19.4748C233.671 19.4748 235.361 21.3932 235.758 24.3071C235.931 25.5861 235.816 28.7398 235.816 31.5302C235.816 33.2815 235.816 34.9674 235.758 36.0792C235.7 37.3 235.476 37.9394 234.602 38.172C234.248 38.2882 233.497 38.4626 232.457 38.5716C232.4 38.637 232.342 38.9277 232.342 39.1602C232.342 39.4509 232.4 39.7997 232.457 39.916C233.736 39.8579 235.411 39.7416 238.192 39.7416C241.145 39.7416 242.705 39.916 243.522 39.916C243.695 39.7489 243.753 39.3346 243.753 38.9858ZM265 37.5325C265 37.4162 264.942 37.1837 264.942 37.1837C264.357 37.4162 263.902 37.4744 263.093 37.4744C261.353 37.4744 260.833 35.9556 260.833 34.793C260.833 30.1277 261.071 26.6325 261.071 23.7185C261.071 19.9326 259.504 16.2629 254.29 16.2629C252.845 16.2629 248.967 17.8979 246.418 19.7582C246.071 20.2232 245.262 22.0326 245.262 22.7884C245.262 23.3697 247.118 24.3071 247.573 24.3071C247.746 24.3071 248.043 24.249 248.043 24.249C248.389 22.207 248.909 19.9326 249.494 19.5329C249.834 19.2422 250.65 19.0606 251.516 19.0606C255.402 19.0606 257.077 21.1025 257.077 24.3071C257.077 25.1791 256.962 27.1048 256.962 27.1048C256.962 27.1048 256.557 27.3373 256.442 27.3955C254.362 28.4491 247.465 30.3094 245.551 31.1814C245.32 31.6465 244.858 33.049 244.858 34.2116C244.858 37.3 246.887 40.4537 250.065 40.4537C251.343 40.4537 253.777 39.1675 256.557 37.4235H256.615C256.673 37.4235 256.788 37.4816 256.788 37.5398C256.846 37.954 257.027 38.6516 257.193 38.9422C257.662 39.8724 258.529 40.461 260.031 40.461C261.425 40.461 263.447 39.698 264.841 38.3028C264.949 38.172 265 37.7142 265 37.5325ZM256.89 29.0232C256.89 30.0187 256.774 33.2742 256.716 34.793C256.658 35.3743 256.485 35.9556 256.146 36.2536C255.445 36.8349 253.885 37.3 253.127 37.3C250.809 37.3 249.126 35.6722 249.126 33.3396C249.126 32.7583 249.422 31.7627 249.653 31.5883C250.52 30.8326 254.347 29.6699 256.716 28.8488C256.839 28.9069 256.89 28.9651 256.89 29.0232ZM130.518 49.2028C130.792 49.2246 131.146 49.2973 131.334 49.3336C131.651 49.4136 131.796 49.6752 131.81 50.0094C131.81 51.2956 131.81 53.323 131.868 54.2895C132.013 55.8882 133.226 56.9927 135.595 56.9927C137.667 56.9927 139.191 56.0989 139.357 53.7881C139.473 52.8798 139.473 51.4482 139.509 50.271C139.545 49.6243 139.747 49.4354 140.101 49.3336C140.303 49.2828 140.6 49.2464 140.823 49.2028C140.917 49.0938 140.896 48.5779 140.823 48.5052C140.506 48.5052 139.892 48.5561 138.975 48.5561C137.978 48.5561 137.212 48.5052 136.916 48.5052C136.844 48.5924 136.822 49.0938 136.916 49.2028C137.249 49.2464 137.581 49.2828 137.805 49.3336C138.267 49.4281 138.375 49.6534 138.419 50.1911C138.455 51.0994 138.469 52.7054 138.404 53.73C138.274 55.5176 137.133 55.8083 136.245 55.8083C135.082 55.8083 134.396 55.147 134.222 54.3404C134.136 53.9044 134.1 53.432 134.078 52.7926C134.078 52.0804 134.056 51.1285 134.078 50.0167C134.1 49.6025 134.208 49.3772 134.555 49.3118C134.721 49.2755 135.017 49.2174 135.262 49.1956C135.335 49.0866 135.335 48.5779 135.277 48.498C134.685 48.498 133.999 48.5488 132.923 48.5488C131.702 48.5488 131.074 48.498 130.539 48.498C130.438 48.5706 130.438 49.072 130.518 49.2028ZM146.356 49.1883C146.803 49.2246 147.179 49.2973 147.41 49.3772C147.764 49.508 147.894 49.9004 147.894 50.162C147.894 52.2984 147.858 54.4785 147.786 55.1906C147.749 55.5975 147.598 55.8591 147.28 55.9681C147.02 56.0408 146.666 56.0844 146.348 56.1207C146.298 56.1934 146.262 56.7311 146.348 56.8038C146.652 56.8038 147.266 56.7457 148.371 56.7457C149.309 56.7457 150.053 56.8038 150.364 56.8038C150.414 56.7093 150.458 56.1716 150.378 56.1207C149.996 56.0626 149.678 56.0263 149.461 55.9681C149.071 55.8373 148.898 55.7065 148.862 55.1325C148.84 54.5003 148.826 52.1894 148.84 50.7579C148.84 50.7434 148.883 50.7216 148.919 50.7434C149.916 52.0659 152.971 56.0699 153.527 56.8692C153.895 56.8329 154.892 56.8111 155.246 56.8474C155.232 56.4041 155.232 55.5612 155.232 54.9508C155.232 53.185 155.246 51.1721 155.304 50.0748C155.362 49.5516 155.528 49.4208 155.91 49.3046C156.12 49.2537 156.358 49.2101 156.575 49.1956C156.647 49.1156 156.669 48.5634 156.575 48.5125C156.221 48.5125 155.65 48.5634 154.69 48.5634C153.881 48.5634 152.993 48.5125 152.653 48.5125C152.581 48.5634 152.523 49.1011 152.653 49.1956C153.007 49.2319 153.339 49.2682 153.599 49.3409C154.047 49.4354 154.192 49.6461 154.235 50.0748C154.307 51.0268 154.285 52.2548 154.285 54.0061C154.285 54.0206 154.249 54.0206 154.235 54.0206C153.412 53.0614 151.606 50.7506 150.458 49.3118C150.14 48.9194 150.053 48.7596 149.959 48.5561C149.736 48.5561 149.107 48.5706 148.717 48.5706C147.836 48.5706 146.912 48.5198 146.348 48.5198C146.283 48.5488 146.276 49.1084 146.356 49.1883ZM162.706 49.1883C163.075 49.2246 163.385 49.261 163.645 49.3336C163.905 49.4136 164.021 49.6025 164.035 49.915C164.057 50.4527 164.057 50.9396 164.057 52.2839C164.057 53.5265 164.035 54.8345 164.021 55.2487C163.985 55.7429 163.869 55.91 163.544 55.9899C163.378 56.0263 163.002 56.0844 162.692 56.1207C162.598 56.2152 162.634 56.6948 162.692 56.8038C163.118 56.8038 164.259 56.7675 165.119 56.7457C165.971 56.7457 167.148 56.7893 167.675 56.8038C167.747 56.7311 167.762 56.2297 167.726 56.1207C167.379 56.0844 166.953 56.0263 166.787 55.9681C166.404 55.8591 166.346 55.6121 166.325 55.2851C166.289 54.7982 166.289 53.8317 166.289 52.3929C166.289 51.2375 166.289 50.46 166.325 49.9731C166.346 49.617 166.404 49.4136 166.715 49.3336C166.917 49.2828 167.213 49.2246 167.545 49.1883C167.617 49.072 167.596 48.5779 167.545 48.5052C167.097 48.5052 166.173 48.5561 165.061 48.5561C163.949 48.5561 163.082 48.5052 162.714 48.5052C162.649 48.5706 162.612 49.072 162.706 49.1883ZM172.875 49.1883C173.135 49.2028 173.395 49.2464 173.583 49.2973C174.06 49.4136 174.283 49.6752 174.688 50.6416C175.121 51.6444 175.742 53.2141 176.472 55.0307C176.753 55.7356 176.984 56.3751 177.151 56.9491C177.49 56.891 178.378 56.891 178.674 56.9273C178.855 56.4405 179.064 55.8882 179.447 54.9944C180.148 53.3085 180.949 51.4192 181.404 50.4745C181.715 49.8278 181.917 49.508 182.293 49.3554C182.48 49.2828 182.777 49.2246 183.073 49.1883C183.152 49.072 183.167 48.5779 183.073 48.5052C182.791 48.5052 182.163 48.5561 181.274 48.5561C180.595 48.5561 179.606 48.5052 179.317 48.5052C179.245 48.5561 179.187 49.0575 179.259 49.1883C179.642 49.2246 179.924 49.2828 180.148 49.3336C180.538 49.4136 180.595 49.6534 180.465 50.1039C180.169 51.0704 179.151 53.4902 178.761 54.384C178.718 54.4058 178.682 54.4058 178.667 54.384C178.256 53.4756 177.093 50.6416 176.789 49.726C176.739 49.5589 176.789 49.4136 176.905 49.3554C177.049 49.2973 177.367 49.2464 177.707 49.1883C177.801 49.0938 177.757 48.5561 177.685 48.5052C177.425 48.5052 176.753 48.5561 175.388 48.5561C174.096 48.5561 173.359 48.5052 172.933 48.5052C172.839 48.5488 172.803 49.072 172.875 49.1883ZM188.446 49.1883C188.742 49.2028 189.154 49.261 189.37 49.3336C189.63 49.4136 189.739 49.5589 189.782 49.915C189.796 50.3292 189.796 51.2012 189.796 52.2839C189.796 53.8462 189.782 54.7037 189.76 55.2633C189.739 55.6847 189.609 55.8737 189.349 55.9463C189.132 56.0045 188.554 56.0844 188.034 56.1207C187.94 56.1934 187.962 56.7093 188.034 56.8038C188.699 56.8038 189.963 56.7311 190.851 56.7457C193.769 56.7893 194.498 56.8038 195.126 56.8038C195.827 56.8038 195.957 56.7457 196.051 56.5204C196.289 56.0335 196.585 54.8636 196.643 54.4421C196.607 54.3259 196.051 54.1587 195.957 54.2023C195.769 54.6092 195.516 55.1107 195.292 55.4159C195.011 55.8083 194.715 55.8809 194.202 55.8809C193.472 55.8809 192.664 55.8809 192.367 55.8083C192.201 55.7501 192.057 55.5467 192.035 55.2996V53.2286C192.035 53.1922 192.071 53.0978 192.107 53.0978C192.591 53.0978 193.501 53.0978 193.79 53.1196C194.05 53.1559 194.166 53.3085 194.26 53.512C194.296 53.6791 194.332 53.7009 194.404 54.057C194.498 54.1297 195.069 54.1078 195.141 54.057C195.141 53.7154 195.105 52.996 195.105 52.6182C195.105 52.1676 195.162 51.5064 195.177 51.2593C195.105 51.1648 194.52 51.143 194.426 51.1866C194.404 51.3683 194.368 51.5427 194.31 51.688C194.238 51.9714 194.13 52.1168 193.826 52.1386C193.364 52.1604 192.591 52.1604 192.107 52.1604C192.071 52.1604 192.035 52.1022 192.035 52.0659V49.7042C192.035 49.6316 192.107 49.4426 192.187 49.4208C192.447 49.3845 193.704 49.3845 194.036 49.4208C194.332 49.4426 194.57 49.5516 194.693 49.8714C194.787 50.0966 194.866 50.3074 194.917 50.7288C194.996 50.787 195.545 50.7652 195.639 50.6852C195.661 49.9077 195.726 48.9412 195.827 48.5343C195.827 48.5125 195.791 48.4544 195.769 48.4544C195.285 48.5488 194.491 48.5488 193.92 48.5488H190.836C190.129 48.5488 188.98 48.498 188.446 48.498C188.359 48.5852 188.359 49.1302 188.446 49.1883ZM202.428 49.1883C202.731 49.2028 203.114 49.2828 203.338 49.3336C203.619 49.3918 203.75 49.5589 203.764 49.915C203.786 50.3146 203.786 51.1067 203.786 52.6908C203.786 53.4756 203.764 54.929 203.728 55.3214C203.706 55.7429 203.598 55.91 203.28 56.0045C203.114 56.0408 202.702 56.0989 202.471 56.1353C202.377 56.1716 202.392 56.7529 202.45 56.8038C202.998 56.8038 203.8 56.7457 204.84 56.7457C205.801 56.7457 206.646 56.8038 207.245 56.8038C207.317 56.7675 207.353 56.1571 207.281 56.1353C206.906 56.0844 206.696 56.0408 206.451 55.9899C206.133 55.8955 206.024 55.7283 206.003 55.3359C205.967 54.7401 205.967 54.1878 205.967 53.3812C205.967 53.3594 206.003 53.2867 206.024 53.2867H206.451C206.566 53.3085 206.732 53.3594 206.841 53.512C207.303 54.275 207.989 55.3359 208.538 56.0045C208.689 56.2297 208.928 56.4405 209.246 56.5858C209.744 56.8474 211.484 56.9055 212.221 56.8474C212.315 56.8329 212.387 56.2588 212.329 56.1789C211.614 56.0917 211.39 56.0117 210.943 55.5685C210.264 54.9072 209.079 53.3739 208.747 52.7926C208.747 52.7562 208.747 52.6981 208.762 52.6836C209.65 52.3638 210.394 51.6953 210.394 50.598C210.394 49.4281 209.491 48.5343 207.743 48.5343C207.086 48.5343 205.822 48.5706 204.659 48.5706C204.017 48.5706 202.789 48.5198 202.457 48.5198C202.385 48.5343 202.341 49.0938 202.428 49.1883ZM206.118 49.3554C206.205 49.2973 206.393 49.2828 206.508 49.2828C207.613 49.2828 208.242 49.8641 208.242 51.034C208.242 51.8479 207.924 52.204 207.527 52.3784C207.245 52.5092 206.696 52.5455 206.075 52.5455C206.003 52.5455 205.967 52.4728 205.967 52.4147C205.967 51.2956 205.967 49.9586 206.003 49.5444C206.01 49.4862 206.061 49.3772 206.118 49.3554ZM218.042 54.0061C217.934 53.9698 217.399 54.1006 217.363 54.1951C217.385 54.6747 217.681 56.3751 217.847 56.564C218.179 56.7311 219.212 57.0073 220.252 57.0073C222.635 57.0073 223.971 55.7792 223.971 54.3477C223.971 53.3085 223.394 52.6472 222.455 52.1676C221.761 51.8116 221.306 51.6154 220.599 51.2811C220.021 50.9759 219.638 50.6126 219.638 50.0458C219.638 49.4281 220.158 49.0066 220.916 49.0066C221.357 49.0066 221.747 49.1011 222.043 49.3336C222.361 49.5589 222.563 49.9949 222.693 50.8451C222.751 50.9032 223.3 50.8814 223.379 50.8088C223.43 50.0094 223.524 49.0212 223.617 48.5198C223.43 48.5198 223.105 48.4616 222.563 48.4108C222.137 48.3526 221.631 48.2945 220.967 48.2945C219.169 48.2945 217.695 49.152 217.695 50.7942C217.695 52.1894 218.598 52.9161 219.934 53.5701C221.415 54.2895 221.819 54.6093 221.819 55.2851C221.819 55.9318 221.22 56.2515 220.577 56.2515C220.115 56.2515 219.559 56.0989 219.212 55.8373C218.706 55.474 218.353 54.8999 218.042 54.0061ZM230.348 49.1883C230.717 49.2246 231.035 49.261 231.287 49.3336C231.547 49.4136 231.656 49.6025 231.677 49.915C231.699 50.4527 231.699 50.9396 231.699 52.2839C231.699 53.5265 231.677 54.8345 231.656 55.2487C231.62 55.7429 231.511 55.91 231.186 55.9899C231.013 56.0263 230.645 56.0844 230.334 56.1207C230.24 56.2152 230.276 56.6948 230.334 56.8038C230.753 56.8038 231.908 56.7675 232.761 56.7457C233.613 56.7457 234.797 56.7893 235.31 56.8038C235.389 56.7311 235.404 56.2297 235.368 56.1207C235.014 56.0844 234.595 56.0263 234.429 55.9681C234.032 55.8591 233.988 55.6121 233.959 55.2851C233.923 54.7982 233.923 53.8317 233.923 52.3929C233.923 51.2375 233.923 50.46 233.959 49.9731C233.981 49.617 234.032 49.4136 234.349 49.3336C234.559 49.2828 234.927 49.2246 235.259 49.1883C235.339 49.072 235.317 48.5779 235.259 48.5052C234.826 48.5052 233.808 48.5561 232.703 48.5561C231.591 48.5561 230.724 48.5052 230.356 48.5052C230.291 48.5706 230.255 49.072 230.348 49.1883ZM242.799 56.1135C242.727 56.1861 242.727 56.7239 242.799 56.7965C243.117 56.7965 244.135 56.7384 245.262 56.7384C246.613 56.7384 247.501 56.7965 248.021 56.7965C248.115 56.7239 248.151 56.1861 248.093 56.1135C247.588 56.0553 247.277 55.9972 247.06 55.9391C246.743 55.8083 246.656 55.6266 246.634 55.3287C246.584 54.5802 246.598 51.4991 246.598 49.5589C246.598 49.508 246.656 49.4281 246.692 49.4136C246.88 49.4136 247.703 49.4136 248.115 49.4499C248.353 49.4717 248.577 49.5444 248.707 49.8786C248.815 50.1402 248.967 50.678 249.032 51.1648C249.09 51.2593 249.682 51.2375 249.74 51.1648C249.812 50.3437 249.928 49.0648 250.094 48.4616C250.094 48.4253 249.978 48.3672 249.942 48.389C249.588 48.5052 249.111 48.5561 248.404 48.5561H242.742C242.344 48.5561 241.853 48.5052 241.463 48.3308C241.405 48.3163 241.312 48.3672 241.312 48.389C241.254 49.0212 241.124 50.4745 240.994 51.0558C241.052 51.1648 241.6 51.2811 241.694 51.2012C241.904 50.6634 242.048 50.3146 242.229 49.9949C242.417 49.6025 242.691 49.4717 242.944 49.4499C243.298 49.4136 244.013 49.4136 244.273 49.4281C244.309 49.4281 244.352 49.508 244.352 49.5444C244.352 51.7026 244.352 53.7881 244.309 55.1034C244.294 55.6993 244.128 55.9027 243.738 55.9827C243.536 56.019 243.225 56.0771 242.799 56.1135ZM257.2 56.1135C257.128 56.1861 257.128 56.7239 257.243 56.7965C257.763 56.7965 258.536 56.7384 259.721 56.7384C260.999 56.7384 261.793 56.7965 262.162 56.7965C262.22 56.7239 262.277 56.1643 262.219 56.1135L261.353 55.9827C260.97 55.8664 260.876 55.6411 260.855 55.1833C260.84 54.6747 260.84 54.275 260.84 53.6501C260.84 53.3884 260.898 53.2213 261.006 53.0251C261.324 52.3856 262.133 51.0558 262.711 50.1693C263.122 49.5734 263.332 49.4136 263.743 49.2973C263.895 49.261 264.177 49.2028 264.408 49.1665C264.502 49.072 264.48 48.5343 264.408 48.498C263.996 48.498 263.447 48.5488 262.725 48.5488C262.09 48.5488 261.281 48.498 260.876 48.498C260.761 48.5488 260.761 49.072 260.84 49.181C261.129 49.2174 261.418 49.2755 261.591 49.3118C261.909 49.3845 261.931 49.5734 261.83 49.7987C261.627 50.2856 260.963 51.47 260.493 52.2403C260.479 52.2548 260.421 52.2766 260.4 52.2403C260.183 51.8842 259.295 50.2856 258.977 49.6461C258.883 49.479 258.861 49.3482 259.071 49.2755C259.165 49.2537 259.403 49.1956 259.569 49.181C259.648 49.1011 259.627 48.5488 259.555 48.498C259.331 48.498 258.536 48.5488 257.373 48.5488C256.095 48.5488 255.546 48.498 255.099 48.498C255.041 48.5706 255.005 49.0866 255.055 49.181C255.286 49.1956 255.525 49.2174 255.712 49.2755C256.124 49.37 256.398 49.479 256.839 50.2056C257.424 51.1503 258.168 52.4946 258.486 53.1196C258.58 53.3448 258.659 53.6064 258.659 53.8172C258.659 54.2677 258.659 54.7473 258.616 55.2342C258.616 55.6411 258.558 55.8446 258.211 55.9536L257.2 56.1135Z" fill="#EC7E1E"/>
</svg>
